<?xml version="1.0" encoding="UTF-8"?>
<svg xmlns="http://www.w3.org/2000/svg" width="64" height="64" viewBox="0 0 64 64">
  <rect width="64" height="64" rx="12" fill="#1a1a2e"/>
  <g transform="translate(32,32)" stroke="#a78bfa" stroke-width="2.5" stroke-linecap="round" fill="none">
    <!-- 6 main arms -->
    <g>
      <line x1="0" y1="0" x2="0" y2="-20"/>
      <line x1="0" y1="-20" x2="-4" y2="-24"/>
      <line x1="0" y1="-20" x2="4" y2="-24"/>
      <line x1="0" y1="-12" x2="-4" y2="-16"/>
      <line x1="0" y1="-12" x2="4" y2="-16"/>
    </g>
    <g transform="rotate(60)">
      <line x1="0" y1="0" x2="0" y2="-20"/>
      <line x1="0" y1="-20" x2="-4" y2="-24"/>
      <line x1="0" y1="-20" x2="4" y2="-24"/>
      <line x1="0" y1="-12" x2="-4" y2="-16"/>
      <line x1="0" y1="-12" x2="4" y2="-16"/>
    </g>
    <g transform="rotate(120)">
      <line x1="0" y1="0" x2="0" y2="-20"/>
      <line x1="0" y1="-20" x2="-4" y2="-24"/>
      <line x1="0" y1="-20" x2="4" y2="-24"/>
      <line x1="0" y1="-12" x2="-4" y2="-16"/>
      <line x1="0" y1="-12" x2="4" y2="-16"/>
    </g>
    <g transform="rotate(180)">
      <line x1="0" y1="0" x2="0" y2="-20"/>
      <line x1="0" y1="-20" x2="-4" y2="-24"/>
      <line x1="0" y1="-20" x2="4" y2="-24"/>
      <line x1="0" y1="-12" x2="-4" y2="-16"/>
      <line x1="0" y1="-12" x2="4" y2="-16"/>
    </g>
    <g transform="rotate(240)">
      <line x1="0" y1="0" x2="0" y2="-20"/>
      <line x1="0" y1="-20" x2="-4" y2="-24"/>
      <line x1="0" y1="-20" x2="4" y2="-24"/>
      <line x1="0" y1="-12" x2="-4" y2="-16"/>
      <line x1="0" y1="-12" x2="4" y2="-16"/>
    </g>
    <g transform="rotate(300)">
      <line x1="0" y1="0" x2="0" y2="-20"/>
      <line x1="0" y1="-20" x2="-4" y2="-24"/>
      <line x1="0" y1="-20" x2="4" y2="-24"/>
      <line x1="0" y1="-12" x2="-4" y2="-16"/>
      <line x1="0" y1="-12" x2="4" y2="-16"/>
    </g>
  </g>
</svg>